<svg viewBox="0 0 1024 1024" fill="none" stroke-linecap="square" stroke-miterlimit="10" xmlns="http://www.w3.org/2000/svg"><clipPath id="a"><path d="M0 0h1024v1024H0V0z"/></clipPath><g clip-path="url(#a)"><path fill="none" d="M0 0h1024v1024H0z"/><path shape-rendering="crispEdges" fill="#fff" d="M0 0h64v64H0V0zM64 0h64v64H64V0zM128 0h64v64h-64V0zM192 0h64v64h-64V0zM256 0h64v64h-64V0zM320 0h64v64h-64V0zM384 0h64v64h-64V0zM448 0h64v64h-64V0zM512 0h64v64h-64V0zM576 0h64v64h-64V0zM640 0h64v64h-64V0zM704 0h64v64h-64V0zM768 0h64v64h-64V0zM832 0h64v64h-64V0zM896 0h64v64h-64V0zM960 0h64v64h-64V0zM0 64h64v64H0V64zM64 64h64v64H64V64zM128 64h64v64h-64V64zM192 64h64v64h-64V64zM256 64h64v64h-64V64zM320 64h64v64h-64V64zM384 64h64v64h-64V64zM448 64h64v64h-64V64zM512 64h64v64h-64V64zM576 64h64v64h-64V64zM640 64h64v64h-64V64zM704 64h64v64h-64V64zM768 64h64v64h-64V64zM832 64h64v64h-64V64zM896 64h64v64h-64V64zM960 64h64v64h-64V64zM0 128h64v64H0v-64zM64 128h64v64H64v-64zM128 128h64v64h-64v-64zM192 128h64v64h-64v-64zM256 128h64v64h-64v-64zM320 128h64v64h-64v-64zM384 128h64v64h-64v-64zM448 128h64v64h-64v-64zM512 128h64v64h-64v-64zM576 128h64v64h-64v-64zM640 128h64v64h-64v-64zM704 128h64v64h-64v-64zM768 128h64v64h-64v-64zM832 128h64v64h-64v-64zM896 128h64v64h-64v-64zM960 128h64v64h-64v-64zM0 192h64v64H0v-64zM64 192h64v64H64v-64zM128 192h64v64h-64v-64zM192 192h64v64h-64v-64zM256 192h64v64h-64v-64zM320 192h64v64h-64v-64zM384 192h64v64h-64v-64zM448 192h64v64h-64v-64zM512 192h64v64h-64v-64zM576 192h64v64h-64v-64zM640 192h64v64h-64v-64zM704 192h64v64h-64v-64zM768 192h64v64h-64v-64zM832 192h64v64h-64v-64zM896 192h64v64h-64v-64zM960 192h64v64h-64v-64zM0 256h64v64H0v-64zM64 256h64v64H64v-64zM128 256h64v64h-64v-64zM192 256h64v64h-64v-64zM256 256h64v64h-64v-64zM320 256h64v64h-64v-64zM384 256h64v64h-64v-64zM448 256h64v64h-64v-64zM512 256h64v64h-64v-64zM576 256h64v64h-64v-64zM640 256h64v64h-64v-64zM704 256h64v64h-64v-64zM768 256h64v64h-64v-64zM832 256h64v64h-64v-64zM896 256h64v64h-64v-64zM960 256h64v64h-64v-64zM0 320h64v64H0v-64zM64 320h64v64H64v-64zM128 320h64v64h-64v-64zM192 320h64v64h-64v-64zM256 320h64v64h-64v-64zM320 320h64v64h-64v-64zM384 320h64v64h-64v-64zM448 320h64v64h-64v-64zM512 320h64v64h-64v-64zM576 320h64v64h-64v-64zM640 320h64v64h-64v-64zM704 320h64v64h-64v-64zM768 320h64v64h-64v-64zM832 320h64v64h-64v-64zM896 320h64v64h-64v-64zM960 320h64v64h-64v-64zM0 384h64v64H0v-64zM64 384h64v64H64v-64zM128 384h64v64h-64v-64zM192 384h64v64h-64v-64zM256 384h64v64h-64v-64zM320 384h64v64h-64v-64zM384 384h64v64h-64v-64zM448 384h64v64h-64v-64zM512 384h64v64h-64v-64zM576 384h64v64h-64v-64zM640 384h64v64h-64v-64zM704 384h64v64h-64v-64zM768 384h64v64h-64v-64zM832 384h64v64h-64v-64zM896 384h64v64h-64v-64zM960 384h64v64h-64v-64zM0 448h64v64H0v-64zM64 448h64v64H64v-64zM128 448h64v64h-64v-64zM192 448h64v64h-64v-64zM256 448h64v64h-64v-64zM320 448h64v64h-64v-64zM384 448h64v64h-64v-64zM448 448h64v64h-64v-64zM512 448h64v64h-64v-64zM576 448h64v64h-64v-64zM640 448h64v64h-64v-64zM704 448h64v64h-64v-64zM768 448h64v64h-64v-64zM832 448h64v64h-64v-64zM896 448h64v64h-64v-64zM960 448h64v64h-64v-64zM0 512h64v64H0v-64zM64 512h64v64H64v-64zM128 512h64v64h-64v-64zM192 512h64v64h-64v-64zM256 512h64v64h-64v-64zM320 512h64v64h-64v-64zM384 512h64v64h-64v-64zM448 512h64v64h-64v-64zM512 512h64v64h-64v-64zM576 512h64v64h-64v-64zM640 512h64v64h-64v-64zM704 512h64v64h-64v-64zM768 512h64v64h-64v-64zM832 512h64v64h-64v-64zM896 512h64v64h-64v-64zM960 512h64v64h-64v-64zM0 576h64v64H0v-64zM64 576h64v64H64v-64zM128 576h64v64h-64v-64zM192 576h64v64h-64v-64zM256 576h64v64h-64v-64zM320 576h64v64h-64v-64zM384 576h64v64h-64v-64zM448 576h64v64h-64v-64zM512 576h64v64h-64v-64zM576 576h64v64h-64v-64zM640 576h64v64h-64v-64zM704 576h64v64h-64v-64zM768 576h64v64h-64v-64zM832 576h64v64h-64v-64zM896 576h64v64h-64v-64zM960 576h64v64h-64v-64zM0 640h64v64H0v-64zM64 640h64v64H64v-64zM128 640h64v64h-64v-64zM192 640h64v64h-64v-64zM256 640h64v64h-64v-64zM320 640h64v64h-64v-64zM384 640h64v64h-64v-64zM448 640h64v64h-64v-64zM512 640h64v64h-64v-64zM576 640h64v64h-64v-64zM640 640h64v64h-64v-64zM704 640h64v64h-64v-64zM768 640h64v64h-64v-64zM832 640h64v64h-64v-64zM896 640h64v64h-64v-64zM960 640h64v64h-64v-64zM0 704h64v64H0v-64zM64 704h64v64H64v-64zM128 704h64v64h-64v-64zM192 704h64v64h-64v-64zM256 704h64v64h-64v-64zM320 704h64v64h-64v-64zM384 704h64v64h-64v-64zM448 704h64v64h-64v-64zM512 704h64v64h-64v-64zM576 704h64v64h-64v-64zM640 704h64v64h-64v-64zM704 704h64v64h-64v-64zM768 704h64v64h-64v-64zM832 704h64v64h-64v-64zM896 704h64v64h-64v-64zM960 704h64v64h-64v-64zM0 768h64v64H0v-64zM64 768h64v64H64v-64zM128 768h64v64h-64v-64zM192 768h64v64h-64v-64zM256 768h64v64h-64v-64zM320 768h64v64h-64v-64zM384 768h64v64h-64v-64zM448 768h64v64h-64v-64zM512 768h64v64h-64v-64zM576 768h64v64h-64v-64zM640 768h64v64h-64v-64zM704 768h64v64h-64v-64zM768 768h64v64h-64v-64zM832 768h64v64h-64v-64zM896 768h64v64h-64v-64zM960 768h64v64h-64v-64zM0 832h64v64H0v-64zM64 832h64v64H64v-64zM128 832h64v64h-64v-64zM192 832h64v64h-64v-64zM256 832h64v64h-64v-64zM320 832h64v64h-64v-64zM384 832h64v64h-64v-64zM448 832h64v64h-64v-64zM512 832h64v64h-64v-64zM576 832h64v64h-64v-64zM640 832h64v64h-64v-64zM704 832h64v64h-64v-64zM768 832h64v64h-64v-64zM832 832h64v64h-64v-64zM896 832h64v64h-64v-64zM960 832h64v64h-64v-64zM0 896h64v64H0v-64zM64 896h64v64H64v-64zM128 896h64v64h-64v-64zM192 896h64v64h-64v-64zM256 896h64v64h-64v-64zM320 896h64v64h-64v-64zM384 896h64v64h-64v-64zM448 896h64v64h-64v-64zM512 896h64v64h-64v-64zM576 896h64v64h-64v-64zM640 896h64v64h-64v-64zM704 896h64v64h-64v-64zM768 896h64v64h-64v-64zM832 896h64v64h-64v-64zM896 896h64v64h-64v-64zM960 896h64v64h-64v-64zM0 960h64v64H0v-64zM64 960h64v64H64v-64zM128 960h64v64h-64v-64zM192 960h64v64h-64v-64zM256 960h64v64h-64v-64zM320 960h64v64h-64v-64zM384 960h64v64h-64v-64zM448 960h64v64h-64v-64zM512 960h64v64h-64v-64zM576 960h64v64h-64v-64zM640 960h64v64h-64v-64zM704 960h64v64h-64v-64zM768 960h64v64h-64v-64zM832 960h64v64h-64v-64zM896 960h64v64h-64v-64zM960 960h64v64h-64v-64z"/><path fill="#ef5350" d="M128 512c0-212.08 171.92-384 384-384a384 384 0 0 1 384 384c0 212.08-171.92 384-384 384S128 724.08 128 512zm95 0c0 159.61 129.39 289 289 289s289-129.39 289-289-129.39-289-289-289-289 129.39-289 289z" fill-rule="evenodd"/><path fill="#ef5350" d="M296.76 512c0-118.88 96.36-215.24 215.24-215.24A215.24 215.24 0 0 1 727.24 512c0 118.88-96.36 215.24-215.24 215.24-118.88 0-215.24-96.36-215.24-215.24zm85.53 0c0 71.64 58.07 129.71 129.71 129.71 71.64 0 129.71-58.07 129.71-129.71 0-71.64-58.07-129.71-129.71-129.71-71.64 0-129.71 58.07-129.71 129.71z" fill-rule="evenodd"/><path fill="#ef5350" d="M463.98 511.99a48 48 0 1 1 96 0 48 48 0 0 1-96 0zM512 896l192-168.76L896 896z" fill-rule="evenodd"/><path fill="#fff" d="M626 464h103.5v96H626z" fill-rule="evenodd"/></g></svg>